# xmcd
#
# Track frame offsets:
#	150
#	16127
#	33402
#	44077
#	58440
#	70425
#	85695
#	99327
#	116682
#	130210
#	145140
#	161622
#	180060
#	196195
#	207630
#
# Disc length: 2955
#
# Revision: 1
# Processed by: cddbd v1.5.1PL0 Copyright (c) Steve Scherf et al.
# Submitted via: CDex 1.50Beta7
# Normalized: r0:TDELIM( - )
#
DISCID=d30b890f
DTITLE=Pure Country: Best of the 90's - Volume II
DYEAR=1997
DGENRE=Country
TTITLE0=Lorrie Morgan - Five Minutes
TTITLE1=K.T. Oslin - Come Next Monday
TTITLE2=Tracy Byrd - The First Step
TTITLE3=Diamond Rio - Mirror Mirror
TTITLE4=Restless Heart - You Can Depend On Me
TTITLE5=Aaron Tippin - My Blue Angel
TTITLE6=Lee Roy Parnell - Love Without Mercy
TTITLE7=Lari White - Now I Know
TTITLE8=John Anderson - Money In The Bank
TTITLE9=Early Thomas Conley (w/ Keith Whitley) - Brotherly Love
TTITLE10=Ronnie Milsap - Turn That Radio On
TTITLE11=Shenandoah - Somewhere In The Vicinity of the Heart
TTITLE12=Ricochet - What Do I Know
TTITLE13=Larry Stewart - Alright Already
TTITLE14=Martina McBride - Life #9
EXTD=YEAR: 1997
EXTT0=
EXTT1=
EXTT2=
EXTT3=
EXTT4=
EXTT5=
EXTT6=
EXTT7=
EXTT8=
EXTT9=
EXTT10=
EXTT11=
EXTT12=
EXTT13=
EXTT14=
PLAYORDER=
